PathFileType	4	(X/Y/Z)	./resultDataOpenSim/trcMotMarkerGrf/sub10/qtm-14-02.trc
DataRate	CameraRate	NumFrames	NumMarkers	Units	OrigDataRate	OrigDataStartFrame	OrigNumFrames
250.000000	250.000000	8	24	m	250.000000	429	490
Frame#	Time	L.Toe.Tip			R.Toe.Tip			L.Ankle.Lat			R.Ankle.Lat			L.Ankle.Med			R.Ankle.Med			L.Heel			R.Heel			L.Knee.Lat			R.Knee.Lat			L.Knee.Med			R.Knee.Med			L.Thigh.Upper			R.Thigh.Upper			L.ASIS			R.ASIS			V.Sacral			L.Acromium			R.Acromium			C7			L.Elbow			R.Elbow			L.Wrist.Lat			R.Wrist.Lat
		X1	Y1	Z1	X2	Y2	Z2	X3	Y3	Z3	X4	Y4	Z4	X5	Y5	Z5	X6	Y6	Z6	X7	Y7	Z7	X8	Y8	Z8	X9	Y9	Z9	X10	Y10	Z10	X11	Y11	Z11	X12	Y12	Z12	X13	Y13	Z13	X14	Y14	Z14	X15	Y15	Z15	X16	Y16	Z16	X17	Y17	Z17	X18	Y18	Z18	X19	Y19	Z19	X20	Y20	Z20	X21	Y21	Z21	X22	Y22	Z22	X23	Y23	Z23	X24	Y24	Z24

429	1.712	1.678641	0.06801858	-0.23690307	0.93308116	0.038649141	0.0094157959	1.5482416	0.069820583	-0.27495909	0.81118768	0.10929008	0.046851676	1.5489965	0.088666554	-0.19079367	0.84117285	0.12069473	-0.038048234	1.4883552	0.025768462	-0.23890965	0.75568143	0.10385115	8.7636937e-05	1.467011	0.450024	-0.26734328	1.041038	0.44241206	0.05578511	1.4796971	0.42241263	-0.14951034	1.0711366	0.42746041	-0.068158083	1.3129574	0.80539547	-0.29301519	1.1615146	0.83503818	0.069639871	1.3427786	0.91024328	-0.20362033	1.2642539	0.91584615	0.034255784	1.1182712	0.91621081	-0.16334414	1.2490095	1.3835804	-0.2545062	1.2316474	1.3722673	0.063594295	1.1588736	1.405979	-0.10227977	1.039635	1.1183833	-0.34122178	1.2189792	1.0106935	0.13585339	1.1037879	0.88193599	-0.37920416	1.4524956	0.95544939	0.061800575
430	1.716	1.6804648	0.063981392	-0.23739844	0.93353552	0.03859026	0.0094942673	1.550109	0.069195161	-0.27509375	0.8135369	0.11166488	0.047087621	1.5515721	0.088248836	-0.19075924	0.84357152	0.12266728	-0.037495253	1.489097	0.026722058	-0.23884188	0.75789978	0.10736436	0.00058866444	1.4723394	0.4492757	-0.26820168	1.0477332	0.44212526	0.055164611	1.4843456	0.42212297	-0.1502616	1.076977	0.42693874	-0.06870959	1.3192054	0.80506886	-0.29445702	1.1687323	0.83434891	0.06836836	1.3488581	0.91016235	-0.20509322	1.2713056	0.91521336	0.032900586	1.1246693	0.91636872	-0.16476709	1.2545069	1.3833055	-0.25644293	1.2375543	1.3720876	0.061828099	1.1644572	1.4055676	-0.10409951	1.0454749	1.1178011	-0.34198904	1.2241658	1.0104121	0.13348391	1.1093883	0.88117423	-0.38058018	1.457599	0.95427658	0.059828476
431	1.72	1.682241	0.060682763	-0.23789052	0.93405041	0.038544888	0.0095544566	1.5518053	0.068759346	-0.2751562	0.81594028	0.11416839	0.047471585	1.5542879	0.088157136	-0.19069723	0.84615807	0.12468131	-0.036899182	1.4899423	0.027679042	-0.23875135	0.76030672	0.1109743	0.0010900608	1.4779121	0.44882017	-0.26904459	1.0541452	0.44191639	0.054555571	1.4893272	0.42211413	-0.15105295	1.0829672	0.42639379	-0.069255701	1.3255111	0.80476898	-0.29599983	1.1759421	0.83358853	0.067169836	1.3548917	0.91007639	-0.20664096	1.2784025	0.91459935	0.031513891	1.1310368	0.91657078	-0.16603063	1.2600604	1.3830697	-0.25838774	1.2435195	1.3719592	0.060079087	1.170081	1.4052444	-0.10595326	1.0514497	1.1171805	-0.34277616	1.229293	1.0101636	0.1310652	1.115101	0.88039143	-0.38197499	1.4626594	0.95301862	0.057921087
432	1.724	1.684014	0.057899498	-0.23824569	0.93464453	0.038521328	0.0096008198	1.5533827	0.068543166	-0.27512707	0.81842327	0.11677655	0.047939777	1.5570918	0.088292576	-0.19058598	0.84895407	0.12672461	-0.036275754	1.490876	0.028630385	-0.23865509	0.76291559	0.11466951	0.0015560293	1.4838086	0.44873368	-0.26981746	1.060148	0.44177612	0.05397264	1.4949612	0.42239796	-0.15176926	1.0891168	0.42582522	-0.069789207	1.3318803	0.80451588	-0.29763002	1.1831766	0.83277156	0.066053138	1.3608927	0.90997733	-0.20826214	1.2855244	0.91399985	0.030099127	1.1373219	0.91675377	-0.16705504	1.265643	1.3828945	-0.26034148	1.2495412	1.3718852	0.058348581	1.1757706	1.4050075	-0.10785415	1.0575616	1.1165237	-0.3435905	1.2343778	1.009958	0.12860581	1.1208543	0.87960542	-0.38336028	1.4676674	0.95167733	0.056072963
433	1.728	1.6857528	0.055422965	-0.23843804	0.93529579	0.038511886	0.0096275893	1.5549262	0.068509119	-0.27499841	0.82103739	0.11943807	0.04840287	1.5597091	0.08849253	-0.19041055	0.85197825	0.12878546	-0.035645917	1.4918503	0.029563849	-0.23855396	0.76574293	0.11843271	0.00194902	1.4900165	0.44903593	-0.27048062	1.0659376	0.4416663	0.053418363	1.5010914	0.42293864	-0.15233334	1.0954358	0.42523251	-0.070300135	1.3383074	0.80432851	-0.29933744	1.1905472	0.8319196	0.064996474	1.3668651	0.90987016	-0.20994595	1.2926574	0.91339986	0.028649411	1.1433319	0.91699776	-0.16759021	1.2712367	1.3827844	-0.26230308	1.2556176	1.3718576	0.05663042	1.1815474	1.4048532	-0.10979393	1.0638028	1.1158446	-0.34444961	1.239427	1.0098106	0.12611254	1.1266606	0.87881877	-0.38473751	1.4726132	0.95025817	0.054284095
434	1.732	1.6874211	0.05321484	-0.2384865	0.93595443	0.03849714	0.0096050235	1.5564657	0.06857379	-0.27476762	0.82383544	0.12211503	0.048818053	1.5619175	0.088636611	-0.19016466	0.8552464	0.13085457	-0.035021791	1.4928041	0.030446644	-0.23845083	0.76881072	0.12224908	0.0022431531	1.496432	0.44966526	-0.27103201	1.0718875	0.44154185	0.052874779	1.5074077	0.42368837	-0.15272806	1.1019379	0.42460993	-0.070777173	1.3447731	0.80422509	-0.30111669	1.1981228	0.83104165	0.063973135	1.3728123	0.90977441	-0.21168334	1.2998115	0.91278531	0.027139507	1.1488479	0.9174385	-0.16723571	1.2768385	1.3827244	-0.26425765	1.261751	1.3718639	0.054918285	1.1874256	1.4047803	-0.111734	1.0701618	1.1151568	-0.34537054	1.2444375	1.0097344	0.12359161	1.1325629	0.87802873	-0.38611521	1.4774901	0.948767	0.052556661
435	1.736	1.6890299	0.051368554	-0.23839055	0.9365896	0.038459108	0.0095145401	1.5579468	0.068646439	-0.27444566	0.82684981	0.12480677	0.049184743	1.5637015	0.088694946	-0.1898462	0.85877199	0.13292275	-0.034405194	1.4936887	0.031240974	-0.23835331	0.77214029	0.12611519	0.0024298134	1.5029134	0.45049871	-0.27150535	1.0782637	0.44137826	0.052325633	1.5137188	0.42460248	-0.15298633	1.1086408	0.42394366	-0.071212103	1.3512496	0.80422906	-0.30296457	1.2058494	0.83012711	0.062972223	1.3787583	0.90971459	-0.21348081	1.3070138	0.91215114	0.025540644	1.1539384	0.91817757	-0.16590458	1.2824535	1.3826894	-0.26618246	1.2679311	1.3719175	0.053209582	1.1934052	1.4047879	-0.11362898	1.0766312	1.1144643	-0.34634539	1.2494028	1.0097343	0.12104856	1.1385961	0.87723492	-0.3874943	1.4822923	0.94720898	0.050889641
436	1.74	1.6906125	0.0499195	-0.23816447	0.93722282	0.038395039	0.0093827201	1.559285	0.06866584	-0.2740805	0.83006756	0.12754046	0.049507436	1.5651459	0.088685748	-0.18946767	0.86256155	0.13497848	-0.033797234	1.4944836	0.031928392	-0.23825554	0.77574314	0.13003549	0.0025171776	1.5093541	0.45140961	-0.27193687	1.0850829	0.44117676	0.051774041	1.5200305	0.42564642	-0.15316049	1.1155589	0.4232154	-0.071599027	1.3577034	0.80436851	-0.30487652	1.2136254	0.82916103	0.06199248	1.3847618	0.90970566	-0.21538056	1.3142824	0.91150253	0.023847387	1.1590151	0.91914891	-0.16419473	1.2880856	1.3826616	-0.26806706	1.2741385	1.3720467	0.051498253	1.1994673	1.4048656	-0.11546104	1.0832047	1.1137628	-0.34734425	1.2543226	1.009806	0.1184926	1.1447711	0.87643565	-0.38887459	1.4870177	0.94558633	0.049280963
